<?xml version="1.0" encoding="UTF-8"?><svg id="Ebene_2" xmlns="http://www.w3.org/2000/svg" xmlns:xlink="http://www.w3.org/1999/xlink" viewBox="0 0 29.24 29.24"><defs><style>.cls-1{fill:url(#Degradado_sin_nombre_9);}.cls-1,.cls-2{stroke-width:0px;}.cls-2{fill:#fff;}</style><linearGradient id="Degradado_sin_nombre_9" x1="24.96" y1="4.28" x2="4.28" y2="24.96" gradientUnits="userSpaceOnUse"><stop offset="0" stop-color="#006ef5"/><stop offset=".78" stop-color="#2130ae"/><stop offset="1" stop-color="#2b1e99"/></linearGradient></defs><g id="ELEMENTS"><circle class="cls-1" cx="14.62" cy="14.62" r="14.62"/><path class="cls-2" d="m15.44,17.25c0,.45-.09.84-.27,1.17-.18.34-.42.62-.73.85-.31.23-.67.4-1.08.52-.41.12-.85.18-1.31.18h-5.09v-10.54h5.64c.37,0,.7.08.99.24.3.16.55.36.76.62.21.25.37.54.48.86.11.32.17.65.17.97,0,.51-.13,1-.39,1.45-.26.45-.63.78-1.13,1,.6.18,1.08.5,1.43.96.35.46.53,1.04.53,1.73Zm-6.44-6.07v2.66h2.73c.35,0,.64-.12.88-.36.24-.24.36-.56.36-.98s-.11-.73-.33-.96c-.22-.24-.5-.36-.82-.36h-2.82Zm4.38,5.68c0-.19-.03-.37-.1-.54-.06-.17-.15-.32-.26-.45-.11-.13-.24-.23-.39-.3-.15-.07-.31-.11-.49-.11h-3.15v2.77h3.04c.19,0,.36-.03.53-.1.16-.07.3-.17.42-.29.12-.12.21-.27.28-.44.07-.17.1-.35.1-.53Z"/><path class="cls-2" d="m19.87,19.96c-.6,0-1.15-.1-1.64-.31-.97-.41-1.65-1.1-2.05-2.08-.19-.47-.28-.96-.28-1.48s.09-1.04.27-1.52c.39-.99,1.07-1.69,2.05-2.11.49-.21,1.05-.32,1.66-.32s1.16.11,1.65.32c1.59.69,2.34,2.24,2.27,3.91,0,.11-.02.21-.04.29h-5.82c.03.3.1.56.22.79.12.23.26.43.45.59.18.16.39.29.62.37.23.09.47.13.72.13.38,0,.75-.09,1.09-.28.34-.19.57-.43.7-.74l1.65.46c-.28.58-.72,1.05-1.33,1.42-.61.37-1.33.55-2.18.55Zm1.96-4.54c-.05-.57-.26-1.02-.63-1.36-.37-.34-.82-.51-1.34-.51-.26,0-.5.05-.73.14-.23.09-.42.22-.6.38-.17.16-.31.36-.42.59-.11.23-.18.48-.19.76h3.91Z"/><path class="cls-2" d="m17.34,9.93h5.04v1.25h-5.04v-1.25Z"/></g></svg>