<?xml version="1.0" encoding="UTF-8"?><svg id="Ebene_2" xmlns="http://www.w3.org/2000/svg" xmlns:xlink="http://www.w3.org/1999/xlink" viewBox="0 0 29.24 29.24"><defs><style>.cls-1{fill:url(#Degradado_sin_nombre_11);}.cls-1,.cls-2{stroke-width:0px;}.cls-2{fill:#fff;}</style><linearGradient id="Degradado_sin_nombre_11" x1="24.96" y1="4.28" x2="4.28" y2="24.96" gradientUnits="userSpaceOnUse"><stop offset="0" stop-color="#f26798"/><stop offset=".87" stop-color="#c72092"/><stop offset="1" stop-color="#c11592"/></linearGradient></defs><g id="ELEMENTS"><circle class="cls-1" cx="14.62" cy="14.62" r="14.62"/><path class="cls-2" d="m14.62,6.41c-4.54,0-8.22,3.69-8.22,8.21s3.69,8.21,8.22,8.21,8.23-3.68,8.23-8.21-3.69-8.21-8.23-8.21h0Zm5.41,3.88c.94,1.16,1.51,2.63,1.53,4.23-.31-.06-1.63-.31-3.21-.31-.51,0-1.05.03-1.58.09-.05-.11-.09-.22-.14-.33-.14-.33-.29-.65-.45-.97,2.43-1,3.6-2.39,3.85-2.71h0Zm-5.41-2.59c1.75,0,3.35.65,4.58,1.72-.19.26-1.24,1.58-3.59,2.46-1.09-1.98-2.27-3.63-2.56-4.01.5-.12,1.03-.18,1.57-.18h0Zm-2.98.67c.24.33,1.43,1.99,2.54,3.96-2.99.79-5.64.84-6.28.84h-.07c.46-2.12,1.89-3.88,3.81-4.79h0Zm-3.96,6.27c0-.06,0-.11,0-.17.04,0,.1,0,.18,0,.86,0,3.86-.07,6.94-.99.19.37.37.74.53,1.11-.08.02-.15.04-.23.07-3.47,1.12-5.38,4.09-5.68,4.58-1.09-1.23-1.75-2.84-1.75-4.6h0Zm6.95,6.94c-1.59,0-3.06-.54-4.24-1.44.2-.39,1.64-2.98,5.45-4.31,0,0,0,0,0,0,.95,2.48,1.36,4.57,1.47,5.22-.83.35-1.73.54-2.68.54h0Zm3.94-1.22c-.09-.53-.47-2.49-1.33-4.87.48-.08.96-.11,1.4-.11,1.45,0,2.59.32,2.85.4-.31,1.89-1.4,3.53-2.92,4.58h0Z"/></g></svg>