<?xml version="1.0" encoding="UTF-8"?><svg id="Ebene_2" xmlns="http://www.w3.org/2000/svg" xmlns:xlink="http://www.w3.org/1999/xlink" viewBox="0 0 29.24 29.24"><defs><style>.cls-1{fill:url(#Degradado_sin_nombre_10);}.cls-1,.cls-2{stroke-width:0px;}.cls-2{fill:#fff;}</style><linearGradient id="Degradado_sin_nombre_10" x1="24.96" y1="4.28" x2="4.28" y2="24.96" gradientUnits="userSpaceOnUse"><stop offset="0" stop-color="#007ab5"/><stop offset="1" stop-color="#0046e5"/></linearGradient></defs><g id="ELEMENTS"><circle class="cls-1" cx="14.62" cy="14.62" r="14.62"/><path class="cls-2" d="m8.49,11.9h2.83v9.1h-2.83v-9.1Zm1.42-4.52c.91,0,1.64.73,1.64,1.64s-.73,1.64-1.64,1.64-1.64-.74-1.64-1.64.73-1.64,1.64-1.64"/><path class="cls-2" d="m13.1,11.9h2.71v1.24h.04c.38-.72,1.3-1.47,2.68-1.47,2.86,0,3.39,1.88,3.39,4.33v4.99h-2.83v-4.42c0-1.06-.02-2.41-1.47-2.41s-1.7,1.15-1.7,2.34v4.5h-2.83v-9.1Z"/></g></svg>