<?xml version="1.0" encoding="UTF-8"?>
<svg id="Ebene_2" data-name="Ebene 2" xmlns="http://www.w3.org/2000/svg" viewBox="0 0 331.75 50">
  <defs>
    <style>
      .cls-1 {
        fill: #fff;
      }

      .cls-1, .cls-2 {
        stroke-width: 0px;
      }

      .cls-2 {
        fill: #00ff97;
      }
    </style>
  </defs>
  <g id="background">
    <g>
      <g>
        <path class="cls-2" d="M110.13,6.93h4.22v30.41h-4.22v-2.98c-.66,1.05-1.53,1.9-2.59,2.54-1.07.64-2.32.96-3.75.96s-2.85-.28-4.14-.83c-1.28-.55-2.42-1.32-3.4-2.3-.98-.98-1.75-2.11-2.3-3.4-.55-1.28-.83-2.66-.83-4.14s.28-2.86.83-4.15,1.32-2.43,2.3-3.41,2.11-1.75,3.4-2.3,2.66-.83,4.14-.83,2.68.32,3.75.96,1.93,1.48,2.59,2.52V6.93ZM103.83,33.8c1.19,0,2.59-.29,3.49-.88.89-.59,1.58-1.38,2.08-2.38.49-1,.74-2.11.74-3.32s-.25-2.34-.75-3.34-1.19-1.79-2.08-2.38c-.89-.59-2.29-.88-3.48-.88s-2.25.3-3.21.89c-.97.59-1.74,1.39-2.31,2.39-.57,1-.86,2.11-.86,3.32s.29,2.34.88,3.33c.59.99,1.37,1.78,2.33,2.37.97.59,2.02.88,3.17.88Z"/>
        <path class="cls-1" d="M236.09,47.48h-4.22s0-30.41,0-30.41h4.22s0,2.98,0,2.98c.66-1.05,1.53-1.9,2.59-2.54,1.07-.64,2.32-.96,3.75-.96s2.85.28,4.14.83c1.28.55,2.42,1.32,3.4,2.3.98.98,1.75,2.11,2.3,3.4.55,1.28.83,2.66.83,4.14,0,1.47-.28,2.86-.83,4.15s-1.32,2.43-2.3,3.41c-.98.98-2.11,1.75-3.4,2.3s-2.66.83-4.14.83c-1.43,0-2.68-.32-3.75-.96s-1.93-1.48-2.59-2.52v13.08ZM242.4,20.62c-1.19,0-2.59.29-3.49.88-.89.59-1.58,1.38-2.08,2.38-.49,1-.74,2.11-.74,3.32s.25,2.34.75,3.34,1.19,1.79,2.08,2.38c.89.59,2.29.88,3.48.88s2.25-.3,3.21-.89c.97-.59,1.74-1.39,2.31-2.39.57-1,.86-2.11.86-3.32s-.29-2.34-.88-3.33-1.37-1.78-2.33-2.37c-.97-.59-2.02-.88-3.17-.88Z"/>
        <path class="cls-2" d="M128.88,37.87c-1.86,0-3.56-.48-5.1-1.44-1.53-.96-2.76-2.25-3.67-3.86-.91-1.61-1.37-3.4-1.37-5.36,0-1.49.26-2.88.79-4.17s1.25-2.43,2.18-3.41c.93-.98,2-1.75,3.23-2.3,1.23-.55,2.54-.83,3.93-.83,1.55,0,2.98.32,4.28.96,1.3.64,2.41,1.53,3.32,2.66.92,1.13,1.59,2.43,2.03,3.89.43,1.47.56,3.02.39,4.67h-15.63c.18.93.52,1.77,1.02,2.52.51.75,1.16,1.34,1.95,1.77.79.43,1.67.66,2.65.67,1.03,0,1.96-.26,2.81-.77.84-.51,1.54-1.22,2.08-2.13l4.28.99c-.81,1.8-2.03,3.27-3.67,4.41-1.64,1.14-3.47,1.71-5.49,1.71ZM123.13,25.46h11.51c-.14-.97-.48-1.85-1.02-2.65s-1.23-1.42-2.05-1.88c-.82-.47-1.71-.7-2.69-.7s-1.85.23-2.67.69c-.82.46-1.49,1.08-2.03,1.87s-.89,1.68-1.06,2.67Z"/>
        <path class="cls-2" d="M147.49,47.48h-4.22v-30.41h4.22v2.98c.68-1.04,1.54-1.88,2.59-2.53,1.05-.65,2.3-.97,3.73-.97s2.86.28,4.15.83c1.29.55,2.42,1.32,3.4,2.3.97.98,1.74,2.11,2.29,3.4.55,1.28.83,2.66.83,4.14s-.28,2.86-.83,4.16c-.55,1.3-1.32,2.44-2.29,3.42-.97.98-2.11,1.75-3.4,2.3-1.29.55-2.67.83-4.15.83s-2.68-.33-3.73-.98-1.92-1.5-2.59-2.52v13.08ZM153.78,20.62c-1.18,0-2.21.3-3.1.89-.89.6-1.59,1.39-2.09,2.38-.5.99-.75,2.1-.75,3.31s.25,2.32.75,3.32,1.2,1.8,2.09,2.39c.89.59,1.93.89,3.1.89s2.23-.29,3.2-.88c.97-.59,1.75-1.38,2.33-2.38.58-1,.87-2.12.87-3.34s-.29-2.3-.86-3.3-1.35-1.8-2.32-2.39c-.97-.59-2.05-.89-3.22-.89Z"/>
        <path class="cls-2" d="M168.52,37.34V6.93h4.22v30.41h-4.22Z"/>
        <path class="cls-2" d="M187.27,37.87c-1.86,0-3.57-.48-5.1-1.44-1.53-.96-2.76-2.25-3.67-3.86s-1.37-3.4-1.37-5.36c0-1.49.26-2.88.79-4.17.53-1.29,1.25-2.43,2.18-3.41.93-.98,2-1.75,3.23-2.3,1.23-.55,2.54-.83,3.93-.83,1.86,0,3.56.48,5.1,1.44,1.53.96,2.76,2.25,3.67,3.87.91,1.62,1.37,3.42,1.37,5.39,0,1.47-.26,2.85-.79,4.14-.53,1.28-1.25,2.42-2.18,3.4-.93.98-2,1.75-3.22,2.3-1.22.55-2.54.83-3.94.83ZM187.27,33.65c1.12,0,2.13-.3,3.02-.89.89-.59,1.6-1.38,2.12-2.36.52-.98.78-2.04.78-3.19s-.27-2.26-.8-3.24c-.53-.99-1.25-1.77-2.14-2.36-.89-.59-1.89-.88-2.98-.88s-2.11.3-3.01.89-1.61,1.39-2.13,2.37c-.52.99-.78,2.06-.78,3.22s.27,2.29.81,3.26,1.26,1.75,2.16,2.32c.9.58,1.88.86,2.95.86Z"/>
        <path class="cls-2" d="M214.39,17.07h4.5l-11.11,30.41h-4.48l3.67-10.14-7.28-20.27h4.6l4.78,14.5,5.31-14.5Z"/>
        <path class="cls-1" d="M273.12,17.07h4.22v20.27h-4.24l-.16-2.94c-.59,1.04-1.4,1.88-2.41,2.51-1.01.64-2.21.95-3.59.95-1.49,0-2.89-.28-4.2-.84-1.31-.56-2.46-1.34-3.46-2.34-.99-1-1.77-2.15-2.32-3.46-.55-1.3-.83-2.71-.83-4.21s.27-2.81.81-4.08c.54-1.28,1.29-2.4,2.25-3.35s2.07-1.71,3.33-2.26c1.26-.55,2.62-.82,4.06-.82s2.77.34,3.9,1c1.13.67,2.06,1.52,2.81,2.56l-.18-3ZM266.84,33.8c1.19,0,2.23-.29,3.12-.88.89-.59,1.58-1.38,2.08-2.38.49-1,.74-2.11.74-3.32s-.25-2.34-.75-3.34c-.5-1-1.19-1.79-2.08-2.38-.89-.59-1.92-.88-3.11-.88s-2.25.3-3.22.89c-.97.59-1.74,1.39-2.31,2.39-.57,1-.85,2.11-.85,3.32s.29,2.34.88,3.33c.59.99,1.36,1.78,2.33,2.37.97.59,2.02.88,3.17.88Z"/>
        <path class="cls-1" d="M282.4,37.34v-20.27h4.22v2.15c.7-.84,1.57-1.5,2.59-1.99s2.14-.73,3.32-.73c.76,0,1.51.1,2.25.3l-1.68,4.26c-.53-.2-1.05-.3-1.58-.3-.89,0-1.71.22-2.45.66-.74.44-1.34,1.03-1.78,1.77-.45.74-.67,1.57-.67,2.47v11.68h-4.22Z"/>
        <path class="cls-1" d="M309.35,21.29h-4.26l-.02,16.06h-4.22l.02-16.06h-3.22v-4.22h3.22l-.02-6.37h4.22l.02,6.37h4.26v4.22Z"/>
        <path class="cls-1" d="M327.25,17.07h4.5l-11.11,30.41h-4.48l3.67-10.14-7.28-20.27h4.6l4.78,14.5,5.31-14.5Z"/>
        <rect class="cls-1" x="221.66" y="33.52" width="4.26" height="4.26"/>
      </g>
      <g>
        <rect class="cls-2" x="46.13" y="33.76" width="4.26" height="4.26"/>
        <rect class="cls-2" x="46.13" y="9.78" width="4.26" height="4.26"/>
        <rect class="cls-2" x="55.89" y="9.78" width="4.25" height="4.26"/>
        <rect class="cls-2" x="46.13" y="21.76" width="4.26" height="4.26"/>
        <rect class="cls-2" x="55.89" y="21.76" width="4.25" height="4.26"/>
        <rect class="cls-2" x="46.13" y="45.74" width="4.26" height="4.26"/>
        <path class="cls-1" d="M76.59,18.99c0,10.48-8.51,18.99-18.99,18.99h-1.71v-4.25h1.71c8.12,0,14.73-6.61,14.73-14.74s-6.61-14.73-14.73-14.73h-16.95v45.74h-21.65C8.52,50,0,41.49,0,31.01S8.52,12.01,18.99,12.01h1.72v4.26h-1.72c-8.12,0-14.73,6.61-14.73,14.73s6.61,14.73,14.73,14.73h17.39V0h21.22c10.48,0,18.99,8.52,18.99,18.99Z"/>
      </g>
    </g>
  </g>
</svg>