<?xml version="1.0" encoding="UTF-8"?><svg id="Ebene_2" xmlns="http://www.w3.org/2000/svg" xmlns:xlink="http://www.w3.org/1999/xlink" viewBox="0 0 355.12 183.55"><defs><style>.cls-1{fill:none;}.cls-2{clip-path:url(#clippath);}</style><clipPath id="clippath"><rect class="cls-1" x="134.43" width="86.25" height="86.25"/></clipPath></defs><g id="Ebene_1-2"><g><g><path d="M38.05,181.17l-.12-.49c-.12-.51,.12-.9,.56-.9,.39,0,.58,.31,.63,.61l.1,.53c.22,1.16,.97,1.55,1.82,1.55,1,0,1.92-.53,1.92-1.84,0-.97-.51-1.63-.97-2.02l-2.23-1.89c-.68-.58-1.5-1.33-1.5-2.8,0-1.73,1.12-2.94,2.99-2.94,2.12,0,2.91,1.53,2.91,2.41v.1c0,.27-.2,.54-.59,.54s-.54-.29-.65-.65l-.05-.17c-.22-.73-.8-1.16-1.62-1.16-.99,0-1.78,.61-1.78,1.78,0,.82,.37,1.34,.8,1.7l2.77,2.36c.34,.29,1.12,1.09,1.12,2.62,0,1.85-1.16,3.03-3.09,3.03s-2.75-1.26-3.03-2.38Z"/><path d="M54.41,182.95c0,.27-.22,.59-.63,.59s-.61-.32-.61-.59v-11.39c0-.27,.22-.59,.61-.59s.63,.32,.63,.59v11.39Z"/><path d="M69.3,171.56c0-.27,.22-.59,.63-.59s.61,.32,.61,.59v11.12c0,.53-.2,.87-.61,.87-.32,0-.58-.2-.78-.65l-4.01-8.91h-.08c.1,1.39,.19,2.8,.19,4.03v4.93c0,.27-.22,.59-.63,.59s-.61-.32-.61-.59v-11.12c0-.54,.2-.87,.61-.87,.32,0,.58,.2,.78,.7l4.01,8.86h.08c-.1-1.39-.19-2.75-.19-3.98v-4.98Z"/><path d="M85.43,176.93c.39,0,.61,.32,.61,.6v3.04c0,1.7-1.16,2.97-3.14,2.97s-3.14-1.27-3.14-2.97v-6.61c0-1.72,1.14-2.99,3.14-2.99,2.23,0,2.96,1.51,2.96,2.41v.1c0,.27-.2,.54-.6,.54s-.56-.29-.66-.65l-.05-.17c-.22-.73-.78-1.16-1.61-1.16-.95,0-1.94,.59-1.94,1.92v6.58c0,1.33,.95,1.92,1.9,1.92s1.9-.59,1.9-1.92v-2.53h-1.51c-.32,0-.54-.24-.54-.54s.22-.54,.54-.54h2.14Z"/><path d="M96.35,182.95c0,.27-.22,.59-.63,.59s-.61-.32-.61-.59v-11.39c0-.27,.22-.59,.61-.59s.63,.32,.63,.59v11.39Z"/><path d="M110.73,171.14c.32,0,.54,.24,.54,.54s-.22,.54-.54,.54h-2.21v10.73c0,.27-.22,.59-.63,.59s-.61-.32-.61-.59v-10.73h-2.19c-.32,0-.54-.24-.54-.54s.22-.54,.54-.54h5.64Z"/><path d="M118.89,183.04c-.1,.39-.34,.51-.63,.51-.46,0-.75-.36-.59-.87l3.21-11.15c.1-.32,.32-.56,.61-.56,.31,0,.53,.24,.63,.56l3.2,11.15c.15,.51-.14,.87-.6,.87-.27,0-.51-.12-.61-.51l-.78-2.92h-3.67l-.76,2.92Zm1.05-4.01h3.09l-1.04-3.88c-.12-.43-.34-1.31-.48-2.07h-.07c-.14,.76-.36,1.65-.48,2.07l-1.04,3.88Z"/><path d="M149.68,176.93c.39,0,.61,.32,.61,.6v3.04c0,1.7-1.16,2.97-3.14,2.97s-3.15-1.27-3.15-2.97v-6.61c0-1.72,1.14-2.99,3.15-2.99,2.23,0,2.96,1.51,2.96,2.41v.1c0,.27-.2,.54-.59,.54s-.56-.29-.66-.65l-.05-.17c-.22-.73-.78-1.16-1.62-1.16-.95,0-1.94,.59-1.94,1.92v6.58c0,1.33,.95,1.92,1.9,1.92s1.9-.59,1.9-1.92v-2.53h-1.51c-.32,0-.54-.24-.54-.54s.22-.54,.54-.54h2.14Z"/><path d="M159.67,183.04c-.1,.39-.34,.51-.63,.51-.46,0-.75-.36-.59-.87l3.21-11.15c.1-.32,.32-.56,.61-.56,.31,0,.53,.24,.63,.56l3.2,11.15c.15,.51-.14,.87-.6,.87-.27,0-.51-.12-.61-.51l-.78-2.92h-3.67l-.76,2.92Zm1.05-4.01h3.09l-1.04-3.88c-.12-.43-.34-1.31-.48-2.07h-.07c-.14,.76-.36,1.65-.48,2.07l-1.04,3.88Z"/><path d="M182.16,179.77c.02-3.47,.03-3.89,.17-5.98h-.08c-.22,.87-1.02,2.97-1.34,3.83l-1.24,3.43c-.15,.39-.42,.46-.66,.46s-.51-.07-.66-.46l-1.24-3.43c-.12-.31-1.16-3.01-1.34-3.83h-.08c.15,2.18,.17,4.01,.17,5.98l.02,3.18c0,.27-.2,.59-.63,.59s-.61-.32-.61-.59v-11.12c0-.54,.2-.87,.66-.87,.41,0,.68,.27,.83,.68l2.84,7.84h.1l2.84-7.84c.15-.41,.42-.68,.83-.68,.46,0,.66,.32,.66,.87v11.12c0,.27-.22,.59-.63,.59s-.61-.32-.61-.59l.02-3.18Z"/><path d="M192.97,171.73c0-.27,.22-.59,.61-.59h4.5c.32,0,.54,.24,.54,.54s-.22,.54-.54,.54h-3.88v4.42h2.87c.32,0,.54,.24,.54,.54s-.22,.54-.54,.54h-2.87v4.56h3.88c.32,0,.54,.24,.54,.54s-.22,.54-.54,.54h-4.5c-.39,0-.61-.32-.61-.59v-11.05Z"/><path d="M220.92,177.99h-1.53v4.96c0,.27-.22,.59-.63,.59s-.61-.32-.61-.59v-11.22c0-.27,.22-.59,.61-.59h1.89c2.06,0,3.5,1.44,3.5,3.37v.14c0,1.41-.77,2.53-1.99,3.06l2.5,4.95c.22,.44-.1,.9-.53,.9-.2,0-.44-.07-.59-.37l-2.62-5.18Zm-.27-1.09c1.14,0,2.26-.7,2.26-2.28v-.1c0-1.58-1.12-2.29-2.26-2.29h-1.26v4.67h1.26Z"/><path d="M233.28,171.73c0-.27,.22-.59,.61-.59h4.5c.32,0,.54,.24,.54,.54s-.22,.54-.54,.54h-3.88v4.42h2.87c.32,0,.54,.24,.54,.54s-.22,.54-.54,.54h-2.87v4.56h3.88c.32,0,.54,.24,.54,.54s-.22,.54-.54,.54h-4.5c-.39,0-.61-.32-.61-.59v-11.05Z"/><path d="M247.25,181.17l-.12-.49c-.12-.51,.12-.9,.56-.9,.39,0,.58,.31,.63,.61l.1,.53c.22,1.16,.97,1.55,1.82,1.55,1,0,1.92-.53,1.92-1.84,0-.97-.51-1.63-.97-2.02l-2.23-1.89c-.68-.58-1.5-1.33-1.5-2.8,0-1.73,1.12-2.94,2.99-2.94,2.12,0,2.91,1.53,2.91,2.41v.1c0,.27-.2,.54-.6,.54s-.54-.29-.65-.65l-.05-.17c-.22-.73-.8-1.16-1.62-1.16-.99,0-1.79,.61-1.79,1.78,0,.82,.37,1.34,.8,1.7l2.77,2.36c.34,.29,1.12,1.09,1.12,2.62,0,1.85-1.16,3.03-3.09,3.03s-2.75-1.26-3.03-2.38Z"/><path d="M262.37,171.73c0-.27,.22-.59,.61-.59h4.5c.32,0,.54,.24,.54,.54s-.22,.54-.54,.54h-3.88v4.42h2.87c.32,0,.54,.24,.54,.54s-.22,.54-.54,.54h-2.87v4.56h3.88c.32,0,.54,.24,.54,.54s-.22,.54-.54,.54h-4.5c-.39,0-.61-.32-.61-.59v-11.05Z"/><path d="M279.57,177.99h-1.53v4.96c0,.27-.22,.59-.63,.59s-.61-.32-.61-.59v-11.22c0-.27,.22-.59,.61-.59h1.89c2.06,0,3.5,1.44,3.5,3.37v.14c0,1.41-.77,2.53-1.99,3.06l2.5,4.95c.22,.44-.1,.9-.53,.9-.2,0-.44-.07-.59-.37l-2.62-5.18Zm-.27-1.09c1.14,0,2.26-.7,2.26-2.28v-.1c0-1.58-1.12-2.29-2.26-2.29h-1.26v4.67h1.26Z"/><path d="M294.26,179.3c.12,.42,.34,1.31,.48,2.07h.07c.14-.76,.36-1.65,.48-2.07l2.11-7.82c.1-.39,.34-.51,.61-.51,.46,0,.75,.36,.6,.87l-3.2,11.15c-.1,.32-.32,.56-.63,.56-.29,0-.51-.24-.61-.56l-3.21-11.15c-.15-.51,.14-.87,.59-.87,.29,0,.53,.12,.63,.51l2.09,7.82Z"/><path d="M307.11,171.73c0-.27,.22-.59,.61-.59h4.5c.32,0,.54,.24,.54,.54s-.22,.54-.54,.54h-3.88v4.42h2.87c.32,0,.54,.24,.54,.54s-.22,.54-.54,.54h-2.87v4.56h3.88c.32,0,.54,.24,.54,.54s-.22,.54-.54,.54h-4.5c-.39,0-.61-.32-.61-.59v-11.05Z"/></g><g><path d="M2.26,114.4c0-.48-.54-.72-1.63-.72H0v-.72H4.08c1.34,0,2.02,.54,2.02,1.63v40.31c1.02,.06,2.03,.12,3.02,.17,.99,.05,1.74,.09,2.23,.12,.5,.03,.94,.05,1.32,.05,1.7,0,2.9-.24,3.62-.72s1.53-1.41,2.42-2.78c.51-.77,1.23-1.15,2.16-1.15,.7,0,1.3,.25,1.8,.74,.5,.5,.74,1.1,.74,1.8,0,2.05-2.19,3.07-6.58,3.07-1.44,0-3.2-.08-5.28-.24-2.11-.19-3.92-.29-5.42-.29-1.15,0-1.87,.06-2.16,.19H.05v-.72H.67c1.06,0,1.58-.24,1.58-.72v-40.02Z"/><path d="M21.18,121.61h.14c1.25,0,1.87,.54,1.87,1.62v17.93c0,.86,.32,1.29,.96,1.29,.42,0,.86-.1,1.34-.3l9.22-4.9v-13.63c0-.51,.14-.98,.43-1.39,.29-.42,.75-.62,1.39-.62,1.34,0,2.02,.54,2.02,1.62v19.36c0,.13,.05,.25,.14,.36,.1,.11,.22,.21,.38,.29,.16,.08,.31,.15,.46,.21,.14,.06,.32,.12,.53,.17,.21,.05,.34,.09,.41,.13v.9h-3.36c-.7,0-1.28-.22-1.73-.67-.45-.45-.67-1.02-.67-1.73v-4.18l-11.53,6.13c-.51,.3-1.12,.45-1.81,.45-1.34,0-2.02-.59-2.02-1.77v-17.93c0-.86-.34-1.29-1.01-1.29-.38,0-.82,.15-1.3,.44l-1.34,.72v-.82s3.65-1.97,3.65-1.97c.48-.29,1.09-.43,1.82-.43Z"/><path d="M47.63,121.61c1.38,0,2.06,.53,2.06,1.59v19.52c0,.13,.04,.25,.12,.36s.22,.22,.41,.31c.19,.1,.34,.17,.46,.22s.29,.11,.53,.19,.38,.12,.41,.12v.72h-3.36c-.74,0-1.32-.22-1.75-.67-.43-.45-.65-1.03-.65-1.73v-17.27c0-.9-.33-1.35-1-1.35-.41,0-.86,.17-1.33,.51l-1.31,.64v-.81s3.65-1.92,3.65-1.92c.48-.29,1.07-.43,1.78-.43Zm-1.7-10.87c.5-.5,1.1-.74,1.8-.74s1.3,.25,1.8,.74c.5,.5,.74,1.1,.74,1.8s-.25,1.3-.74,1.8c-.5,.5-1.1,.74-1.8,.74s-1.3-.25-1.8-.74-.74-1.1-.74-1.8,.25-1.3,.74-1.8Z"/><path d="M68.99,121.61c3.23,0,5.78,1.07,7.63,3.2,1.86,2.13,2.78,4.8,2.78,8.01,0,3.72-.92,6.62-2.76,8.71-1.84,2.08-4.28,3.13-7.32,3.13-1.57,0-3.16-.41-4.78-1.24-1.62-.83-2.89-1.92-3.82-3.28v16.08h-3.84v-31.76c0-.9-.34-1.35-1.01-1.35-.42,0-.85,.15-1.3,.43l-1.34,.67v-.82s3.65-1.97,3.65-1.97c.64-.22,1.25-.34,1.82-.34,1.34,0,2.02,.54,2.02,1.64v1.82c.99-.9,2.24-1.61,3.74-2.14,1.5-.53,3.01-.79,4.51-.79Zm-8.78,10.68c0,1.96,.25,3.68,.74,5.17s1.09,2.63,1.78,3.42c.69,.79,1.5,1.43,2.45,1.92,.94,.5,1.76,.81,2.45,.94,.69,.13,1.37,.19,2.04,.19,1.73,0,3.14-.46,4.22-1.37,1.09-.91,1.81-1.96,2.16-3.13,.35-1.17,.53-2.46,.53-3.87,0-2.05-.41-3.93-1.22-5.63s-1.82-3.02-3.02-3.95c-1.2-.93-2.39-1.64-3.58-2.14-1.18-.5-2.26-.75-3.22-.75-1.06,0-1.95,.29-2.69,.87-.74,.58-1.29,1.35-1.66,2.31-.37,.96-.62,1.93-.77,2.91-.14,.98-.22,2.01-.22,3.1Z"/><path d="M101.92,138.98l.5,.67c-1.07,1.54-2.45,2.75-4.13,3.65-1.68,.9-3.51,1.34-5.49,1.34-3.17,0-5.88-1.13-8.14-3.38-2.26-2.26-3.38-4.97-3.38-8.14s1.15-5.88,3.46-8.14c2.3-2.26,5.06-3.38,8.26-3.38,1.73,0,3.31,.25,4.75,.74,1.43,.5,2.53,1.1,3.28,1.82s1.31,1.38,1.69,1.99c.38,.61,.56,1.09,.56,1.44,0,.51-.19,1-.58,1.48-.38,.47-.84,.84-1.36,1.09l-14.54,7.79c1.12,1.48,2.48,2.71,4.08,3.7,1.6,.99,3.23,1.49,4.9,1.49,1.31,0,2.52-.47,3.64-1.42,1.11-.94,1.95-1.86,2.5-2.76Zm-11.52-15.98c-1.95,0-3.4,.74-4.34,2.21-.94,1.47-1.42,3.31-1.42,5.52,0,2.88,.59,5.09,1.78,6.62l11.9-6.34c.74-.38,1.1-1.01,1.1-1.87,0-1.18-.94-2.5-2.81-3.96-1.87-1.46-3.94-2.18-6.22-2.18Z"/><path d="M109.55,121.61c1.38,0,2.06,.54,2.06,1.63v6.58c1.02-1.89,1.92-3.41,2.69-4.56,.74-1.06,1.44-1.9,2.11-2.54,.86-.74,1.62-1.1,2.26-1.1,.7,0,1.3,.25,1.8,.74,.5,.49,.74,1.09,.74,1.79s-.25,1.3-.74,1.81c-.5,.5-1.1,.75-1.8,.75-.35,.03-.84,.05-1.46,.05s-1.03,.02-1.22,.05-.5,.11-.91,.24c-.42,.13-.76,.35-1.03,.67s-.61,.76-1.01,1.32c-.4,.56-.86,1.27-1.37,2.14-.03,.1-.05,.27-.05,.53v12.96h-3.84v-19.66c0-.91-.33-1.36-1-1.36-.41,0-.86,.17-1.33,.51l-1.31,.64v-.81l3.65-1.92c.48-.29,1.07-.43,1.78-.43Z"/><path d="M140.27,140.8c-2.91,2.57-5.42,3.85-7.54,3.85-3.46,0-6.18-.98-8.18-2.94-2-1.96-3-4.83-3-8.62,0-3.38,.9-6.13,2.69-8.27,1.79-2.14,4.54-3.21,8.26-3.21,2.98,0,5.58,.96,7.82,2.89v-11.1c0-.86-.35-1.3-1.06-1.3-.35,0-.78,.17-1.29,.5l-1.3,.7v-.82s3.65-1.97,3.65-1.97c.58-.29,1.17-.43,1.78-.43,1.38,0,2.06,.53,2.06,1.6v31.04c0,.13,.04,.25,.12,.36,.08,.11,.22,.22,.41,.31,.19,.1,.34,.17,.46,.22,.11,.05,.29,.11,.53,.19,.24,.08,.38,.12,.41,.12v.72h-3.36c-.7,0-1.28-.22-1.73-.65-.45-.43-.69-1.02-.72-1.76v-1.44Zm-15.55-10.71c0,1.77,.26,3.38,.77,4.82,.51,1.45,1.16,2.61,1.94,3.5,.78,.88,1.66,1.63,2.62,2.24s1.86,1.04,2.71,1.28c.85,.24,1.64,.36,2.38,.36,1.09,0,2.02-.26,2.78-.8,.77-.53,1.34-1.25,1.73-2.15,.38-.9,.66-1.84,.84-2.82,.17-.98,.26-2.03,.26-3.16,0-1.8-.22-3.39-.65-4.78-.43-1.38-.97-2.46-1.61-3.23-.64-.77-1.39-1.4-2.26-1.88-.86-.48-1.66-.79-2.38-.94-.72-.14-1.46-.22-2.23-.22-4.61,0-6.91,2.59-6.91,7.76Z"/><path d="M190.38,133.61c0-.48-.54-.72-1.63-.72h-5.47v-.72h12.19v.72c-.83,0-1.25,.24-1.25,.72v11.04h-3.84v-1.82c-2.18,1.22-4.62,1.82-7.34,1.82-4.38,0-8.12-1.55-11.21-4.66-3.09-3.1-4.63-6.83-4.63-11.18s1.54-8.08,4.63-11.18c3.09-3.1,6.82-4.66,11.21-4.66,3.68,0,6.66,.71,8.95,2.14,2.29,1.42,3.45,2.79,3.48,4.1,0,.7-.25,1.3-.75,1.8-.5,.5-1.11,.74-1.82,.74s-1.32-.25-1.81-.74c-.5-.5-.74-1.1-.74-1.8,0-1.63-.62-2.96-1.85-3.98-1.23-1.02-3.05-1.54-5.45-1.54s-4.58,.51-6.62,1.54c-2.02,.99-3.49,2.48-4.42,4.46-.93,1.98-1.39,4.18-1.39,6.58,0,2.75,.55,5.27,1.66,7.56,1.1,2.29,2.47,4.09,4.1,5.4,1.63,1.31,3.27,2.32,4.92,3.02,1.65,.7,3.13,1.06,4.44,1.06,1.7,0,3.25-.43,4.66-1.3v-8.4Z"/><path d="M203.01,110.09c1.34,0,2.02,.53,2.02,1.6v42.55c0,.13,.04,.25,.12,.36,.08,.11,.22,.22,.41,.31,.19,.1,.34,.17,.46,.22,.11,.05,.29,.11,.53,.19,.24,.08,.38,.12,.41,.12v.72h-3.36c-.74,0-1.32-.22-1.75-.67-.43-.45-.65-1.03-.65-1.73v-40.36c0-.87-.34-1.3-1.01-1.3-.42,0-.85,.16-1.3,.48l-1.34,.72v-.82l3.65-1.97c.64-.29,1.25-.43,1.82-.43Z"/><path d="M219.55,121.61c3.16,0,5.86,1.12,8.11,3.36,2.25,2.24,3.38,4.96,3.38,8.16v9.6c0,.13,.04,.25,.12,.36,.08,.11,.22,.22,.41,.31,.19,.1,.34,.17,.46,.22,.11,.05,.29,.11,.53,.19,.24,.08,.38,.12,.41,.12v.72h-3.36c-.7,0-1.28-.22-1.73-.67-.45-.45-.67-1.02-.67-1.73v-.62c-2.26,2.02-4.88,3.02-7.84,3.02-1.75,0-3.36-.25-4.81-.74-1.45-.5-2.56-1.1-3.33-1.82-.77-.72-1.34-1.38-1.73-1.99-.38-.61-.58-1.09-.58-1.44,0-.51,.18-1.01,.53-1.49,.35-.48,.77-.85,1.25-1.1l14.54-7.73c-.99-1.92-2.25-3.29-3.79-4.1s-3.02-1.22-4.43-1.22c-.99,0-1.67,.17-2.03,.5s-.55,.86-.55,1.56v2.88c0,.71-.25,1.3-.74,1.8-.5,.5-1.1,.74-1.8,.74s-1.3-.25-1.8-.74-.74-1.1-.74-1.8c0-1.15,1.03-2.5,3.09-4.03,2.06-1.54,4.43-2.3,7.11-2.3Zm6.06,7.28l-11.91,6.38c-.63,.36-.95,.99-.95,1.89,0,1.28,.97,2.62,2.91,4.01,1.94,1.39,4,2.09,6.18,2.09,1.12,0,2.07-.23,2.87-.7,.8-.46,1.4-1.09,1.82-1.87,.41-.78,.71-1.59,.88-2.42,.17-.83,.26-1.73,.26-2.69,0-2.92-.69-5.15-2.07-6.69Z"/><path d="M250.29,121.61c1.31,0,1.97,.54,1.97,1.63v3.31l8.5-4.51c.48-.29,1.06-.43,1.73-.43,1.34,0,2.02,.55,2.02,1.64v19.48c0,.13,.04,.25,.12,.36s.22,.22,.41,.31c.19,.1,.34,.17,.46,.22,.11,.05,.29,.11,.53,.19,.24,.08,.38,.12,.41,.12v.72h-3.36c-.7,0-1.28-.22-1.73-.67-.45-.45-.67-1.03-.67-1.73v-17.27c0-.9-.32-1.35-.96-1.35-.38,0-.82,.16-1.3,.48l-6.14,3.26v17.28h-3.84v-19.68c0-.9-.32-1.35-.96-1.35-.42,0-.85,.16-1.3,.47l-6.14,3.28v17.28h-3.84v-19.68c0-.9-.33-1.35-1-1.35-.41,0-.86,.17-1.33,.51l-1.31,.64v-.81s3.65-1.92,3.65-1.92c.48-.29,1.07-.43,1.78-.43,1.38,0,2.06,.54,2.06,1.63v3.31l8.45-4.51c.48-.29,1.09-.43,1.82-.43Z"/><path d="M283.45,121.61c3.23,0,5.78,1.07,7.63,3.2,1.86,2.13,2.78,4.8,2.78,8.01,0,3.72-.92,6.62-2.76,8.71-1.84,2.08-4.28,3.13-7.32,3.13-1.57,0-3.16-.41-4.78-1.24-1.62-.83-2.89-1.92-3.82-3.28v16.08h-3.84v-31.76c0-.9-.34-1.35-1.01-1.35-.42,0-.85,.15-1.29,.43l-1.34,.67v-.82s3.65-1.97,3.65-1.97c.64-.22,1.25-.34,1.82-.34,1.34,0,2.02,.54,2.02,1.64v1.82c.99-.9,2.24-1.61,3.74-2.14,1.5-.53,3.01-.79,4.51-.79Zm-8.78,10.68c0,1.96,.25,3.68,.74,5.17s1.09,2.63,1.78,3.42c.69,.79,1.5,1.43,2.45,1.92,.94,.5,1.76,.81,2.45,.94,.69,.13,1.37,.19,2.04,.19,1.73,0,3.14-.46,4.22-1.37,1.09-.91,1.81-1.96,2.16-3.13,.35-1.17,.53-2.46,.53-3.87,0-2.05-.41-3.93-1.22-5.63-.82-1.7-1.82-3.02-3.02-3.95s-2.39-1.64-3.58-2.14-2.26-.75-3.22-.75c-1.06,0-1.95,.29-2.69,.87-.74,.58-1.29,1.35-1.66,2.31-.37,.96-.62,1.93-.77,2.91-.14,.98-.22,2.01-.22,3.1Z"/><path d="M300.35,121.61c1.38,0,2.06,.53,2.06,1.59v19.52c0,.13,.04,.25,.12,.36s.22,.22,.41,.31c.19,.1,.34,.17,.46,.22,.11,.05,.29,.11,.53,.19,.24,.08,.38,.12,.41,.12v.72h-3.36c-.74,0-1.32-.22-1.75-.67-.43-.45-.65-1.03-.65-1.73v-17.27c0-.9-.33-1.35-1-1.35-.41,0-.86,.17-1.33,.51l-1.31,.64v-.81s3.65-1.92,3.65-1.92c.48-.29,1.07-.43,1.78-.43Zm-1.7-10.87c.5-.5,1.1-.74,1.8-.74s1.3,.25,1.8,.74c.5,.5,.74,1.1,.74,1.8s-.25,1.3-.74,1.8-1.1,.74-1.8,.74-1.3-.25-1.8-.74c-.5-.5-.74-1.1-.74-1.8s.25-1.3,.74-1.8Z"/><path d="M311.44,121.61c1.34,0,2.02,.54,2.02,1.63v4.94l11.52-6.14c.51-.29,1.12-.43,1.82-.43,1.34,0,2.02,.53,2.02,1.59v19.52c0,.13,.04,.25,.12,.36s.22,.22,.41,.31c.19,.1,.34,.17,.46,.22s.29,.11,.53,.19,.38,.12,.41,.12v.72h-3.36c-.7,0-1.28-.22-1.73-.67-.45-.45-.67-1.03-.67-1.73v-17.27c0-.9-.34-1.35-1.01-1.35-.42,0-.85,.16-1.3,.46l-9.21,4.91v15.65h-3.84v-19.68c0-.9-.34-1.35-1-1.35-.42,0-.85,.16-1.29,.49l-1.35,.66v-.81s3.65-1.92,3.65-1.92c.51-.29,1.12-.43,1.82-.43Z"/><path d="M344.7,156.17c-2.24,0-4.26-.56-6.07-1.68-1.81-1.12-2.71-2.48-2.71-4.08,0-.7,.25-1.3,.74-1.78,.5-.48,1.1-.72,1.8-.72s1.3,.24,1.8,.72c.5,.48,.74,1.07,.74,1.78s.03,1.3,.1,1.78c.06,.48,.21,1,.43,1.56,.22,.56,.61,.98,1.15,1.27,.54,.29,1.25,.43,2.11,.43,1.22,0,2.26-.21,3.12-.62,.86-.42,1.51-.89,1.94-1.42,.43-.53,.76-1.26,.98-2.18,.22-.93,.35-1.69,.38-2.28,.03-.59,.05-1.37,.05-2.33v-5.81c-2.91,2.56-5.42,3.84-7.54,3.84-3.46,0-6.18-.98-8.18-2.93-2-1.95-3-4.82-3-8.59,0-3.36,.9-6.12,2.69-8.28s4.54-3.24,8.26-3.24c2.98,0,5.57,.98,7.78,2.93v-1.01c0-.51,.14-.98,.41-1.39,.27-.42,.73-.62,1.37-.62,1.38,0,2.06,.54,2.06,1.63v7.06c0,2.72-.02,4.9-.05,6.53-.03,1.63-.12,3.49-.26,5.57-.14,2.08-.35,3.71-.62,4.9-.27,1.18-.67,2.42-1.18,3.72-.51,1.3-1.14,2.28-1.87,2.95-.74,.67-1.64,1.22-2.71,1.66-1.07,.43-2.31,.65-3.72,.65Zm-8.98-26.02c0,1.76,.26,3.36,.77,4.8,.51,1.44,1.16,2.6,1.94,3.48,.78,.88,1.66,1.62,2.62,2.23s1.86,1.03,2.71,1.27c.85,.24,1.64,.36,2.38,.36,1.09,0,2.02-.26,2.78-.79,.77-.53,1.34-1.24,1.73-2.14s.66-1.83,.84-2.81c.18-.98,.26-2.02,.26-3.14,0-3.55-.9-6.28-2.69-8.18-1.79-1.9-3.94-2.86-6.43-2.86-4.61,0-6.91,2.59-6.91,7.78Z"/></g><g class="cls-2"><g><path d="M352.47,94.6c-.62,1.06-1.32,2.09-1.84,3.2-1.03,2.21-2.72,3.41-5.12,3.64-1.5,.15-3.01,.24-4.52,.35-3.26,.24-6.51,.54-9.77,.7-1.68,.08-3.41,.1-5.06-.18-1.72-.3-2.04-1.7-.7-2.85,.84-.72,1.86-1.31,2.89-1.74,3.29-1.36,6.06-3.41,8.1-6.3,2.9-4.11,6.94-5.67,11.75-5.45,1.06,.05,2.1,.89,3.1,1.45,.45,.26,.78,.73,1.16,1.1v6.06Z"/><path d="M352.47,19.97c-1.51-.37-3.17-.48-4.5-1.2-1.19-.64-2.19-1.84-2.99-2.99-1.47-2.11-2.63-4.43-4.12-6.52-.66-.93-1.94-1.41-2.65-2.32-.71-.91-1.56-2.17-1.43-3.15,.2-1.5,1.8-1.72,3.19-1.67,.5,.02,1.06,.04,1.47,.27,3.8,2.12,8.06,3.53,11.03,6.96v10.61Z"/><path d="M352.47,51.79c-2.45-1.04-4.13-2.81-4.89-5.37-.28-.92-.44-1.82,.88-2.27,.45-.15,.85-.85,1-1.37,.49-1.72,1.37-3.08,3-3.88v12.88Z"/><path d="M352.47,71.49c-1.25-1.61-2.5-3.22-3.52-4.54,1.21-1.44,2.37-2.8,3.52-4.17v8.71Z"/><path d="M352.47,122.64c-.94-1.06-1.87-2.11-3.2-3.61,1.4-.24,2.3-.4,3.2-.55v4.17Z"/><path d="M159.19,94.47c2.32,1.71,5.07,3.88,7.96,5.85,5.32,3.63,11.43,4.52,17.67,4.66,5.48,.12,10.99,.27,16.45-.09,6.02-.4,10.45-3.71,13.62-8.79,1.1-1.76,2.29-3.49,3.59-5.11,2.08-2.6,4.8-4.26,8.09-4.91,3.02-.6,4.81,.96,4.19,3.98-.38,1.84-1.23,3.75-2.38,5.24-4.15,5.39-8.61,10.54-12.78,15.92-3.02,3.91-6.87,6.24-11.68,7.04-3.11,.52-4.01-.13-4.71-3.17-.79-3.44-5.58-7.35-9.3-7.7-4.14-.39-8.28-.92-12.42-1.32-4.89-.47-9.55,.18-13.82,2.85-2.66,1.66-4.46,.9-4.73-2.23-.22-2.61,.17-5.27,.25-7.91,.05-1.64,0-3.29,0-4.31Z"/><path d="M145.09,82.44c-2.74-2.84-5.53-5.63-8.2-8.53-1.73-1.87-1.43-3.14,1.02-3.84,4.85-1.38,9.71-2.74,14.65-3.7,2.84-.56,5.73-.22,8.1,2.07,1.94,1.88,6.43,.58,8.42-2.22,.77-1.09,1.55-2.18,2.38-3.34,1.84,2.14,1.96,4.97,.2,6.76-1.16,1.18-2.71,1.99-4.15,2.88-.74,.46-1.62,.69-2.4,1.09-7.37,3.81-9.01,6.14-10,13.86-3.3-1.67-6.69-3.38-10.07-5.09l.06,.06Z"/><path d="M316.03-21.86c-.13,6.32-1.95,11.84-5.66,16.88-1.35,1.83-2.19,4.1-2.97,6.28-1.34,3.78-4.08,5.41-7.87,5.71-1.91,.15-3.2-.77-2.83-2.55,1-4.89,.44-10.23,4.4-14.32,1.86-1.92,3.3-4.31,4.62-6.67,.76-1.36,1.33-3.1,1.24-4.63-.23-3.81,2.17-5.69,4.83-7.48,1.29-.86,2.36-.06,2.76,1.02,.68,1.85,1.01,3.83,1.48,5.75Z"/><path d="M206.58,6.38c-.54,2.41-.96,4.49-1.51,6.54-.12,.46-.67,1.1-1.06,1.13-.4,.03-1.02-.5-1.25-.94-.87-1.7-2.18-3.33-1.13-5.52l-.63-.27c-.8,.96-1.88,1.79-2.33,2.89-1.02,2.48-.48,5,.71,7.29,.89,1.71,4.36,2.16,5.5,.72,2.19-2.76,4.31-5.59,6.24-8.54,.89-1.36,1.83-3.08-.16-4.98,2.08,0,4.17-.09,6.24,.04,1.27,.08,1.48,1.13,.69,1.87-1.02,.95-2.24,1.94-3.54,2.26-1.42,.35-2.05,1.17-2.84,2.19-2.54,3.27-5.2,6.45-7.85,9.63-.26,.31-.76,.59-1.15,.59-3.16-.02-5.09,2.56-7.72,3.67-.8,.33-1.52,1.56-1.7,2.49-.37,1.9-1.39,2.72-3.18,3.23-1.31,.37-2.46,1.33-3.68,2.03-.52,.3-1.04,.59-1.55,.88-.25-.55-.65-1.07-.74-1.65-.91-5.47,1.59-10.69,6.57-13.79,.43-.27,.87-.51,1.31-.77,2.6-1.56,2.77-2.11,1.52-4.86-1.31-2.89,1.31-7.33,4.53-7.08,4.04,.31,7.91,.05,11.71-1.59q-.06,1.37-3.01,2.54Z"/><path d="M280.85,136.64c-2.05-1.81-4.16-3.53-6.12-5.43-2.89-2.81-5.75-5.67-8.47-8.65-6.33-6.92-14.35-10.26-23.48-11.32-5.17-.6-10.3-.4-15.36,1.03,3.8-2.61,7.93-4.37,12.39-5.55,13.74-3.62,23.39,2.23,30.8,13.15,3.22,4.74,6.09,9.71,9.13,14.57,.42,.67,.94,1.27,1.41,1.91-.1,.1-.2,.2-.3,.3Z"/><path d="M299.78,101.07c1.09,.16,3,.26,4.78,.77,1.62,.47,1.57,1.34,.93,2.89-.85,2.06-1.5,4.24-1.91,6.44-.29,1.59-.04,3.27-.03,4.91,.01,1.41-.47,2.46-1.97,2.82-.3,.07-.61,.2-.87,.36-1.85,1.13-3.61,2.22-5.96,1.02-3.03-1.54-5.71-3.23-6.32-6.95-.19-1.17-.6-2.32-1-3.44-1.15-3.27,.68-6.79,4.04-7.69,.55-.15,1.11-.28,1.67-.35,1.94-.24,3.88-.46,6.64-.78Z"/><path d="M284.62,126.46c1.24,.84,2.72,1.47,3.67,2.56,2.16,2.48,4.85,3.46,7.98,3.72,4.71,.4,9.41,1.1,14.12,1.22,2.57,.07,5.18-.74,7.75-1.27,2.77-.57,5.48-1.51,8.26-1.83,3.17-.37,4.26,1.23,3.36,4.3q-1.22,4.15-5.51,4.15c-8.46,0-16.92,0-25.38-.01-.68,0-1.53,.07-2-.29-4.07-3.12-8.94-5.31-11.71-9.94-.4-.66-.7-1.38-1.05-2.07,.17-.18,.34-.36,.51-.54Z"/><path d="M292.8,95.21c-1.75-.38-3.89-.66-5.9-1.33-1.96-.66-2.12-1.72-.76-3.25,.87-.97,1.44-1.86,1.19-3.35-.31-1.8,2.12-4.34,4.29-4.25,5.09,.21,10.21,.51,15.23,1.31,1.47,.23,2.69,2.23,3.91,3.52,.19,.21-.07,1.05-.35,1.44-.27,.37-.8,.61-1.26,.78-4.13,1.53-8.26,3.08-12.43,4.51-1.11,.38-2.35,.39-3.93,.62Z"/><path d="M315.43-5.65c.73,1.47,1.25,2.38,1.64,3.35,1.17,2.91,3.09,4.97,6.12,6.04,2.64,.93,4.67,2.72,6.2,5.06,1.34,2.05,1.29,3.45-.18,5.37-.53,.7-1.13,1.36-1.7,2.03-1.92,2.23-3.03,2.41-5.47,.71-2.36-1.65-4.59-3.4-4.44-6.75,.03-.58-.32-1.21-.59-1.78-.85-1.84-1.16-1.91-2.89-.78-1.33,.86-2.48,.58-2.49-.82-.02-4.27,.98-8.29,3.81-12.42Z"/><path d="M264.87,18.85c-1.62,.26-3-.41-4.09-2-.63-.92-1.54-1.65-2.35-2.43-3.55-3.4-4.35-9.51-1.53-13.5,.63-.89,2.12-1.81,3.09-1.69,2.05,.24,4.07,1.05,5.99,1.88,.49,.21,.91,1.43,.79,2.07-.59,2.96,.2,5.58,1.44,8.2,.45,.95,.75,2.02,.86,3.06,.37,3.68-.27,4.35-4.19,4.41Z"/><path d="M278.52,79.31c.5,.03,1.39,.04,2.27,.13,2.02,.19,2.35,.84,1.35,2.53-2.81,4.74-7.13,7.57-12.16,9.38-1.05,.38-2.52,.07-3.65-.33-2.78-.99-5.48-2.2-8.2-3.37-1.32-.57-.86-1.26-.06-1.97,1.06-.93,2.14-1.85,3.09-2.88,1.49-1.61,3.29-2.58,5.44-2.75,3.84-.29,7.69-.48,11.91-.74Z"/><path d="M277.59,74.38c-4.58-.03-7.5-3.11-7.02-7.69,.23-2.16,.84-4.32,1.54-6.39,.61-1.79,2.31-2.22,4.03-2.21,5.5,.03,9.41,5.18,7.99,10.46-.13,.49-.29,.97-.44,1.45-1.34,4.27-1.56,4.42-6.11,4.39Z"/><path d="M334.11,21.46c1.62-.13,2.79,.64,3.57,2.28,.88,1.86,1.88,3.68,2.96,5.44,1.48,2.41,1.51,3.38-.08,5.68-3.22,4.66-2.65,4.05-7.59,2.53-1.08-.33-2.15-.71-3.2-1.13-2.64-1.04-3.16-1.88-2.63-4.6,.49-2.52,1.1-5.01,1.74-7.5,.48-1.86,2.14-2.7,5.23-2.71Z"/><path d="M275.56,30.52c-.3,2.85-.52,5.71-.96,8.54-.07,.43-1.21,1.02-1.81,.98-1.81-.14-3.68-.32-5.37-.93-1.2-.44-2.43-1.41-3.13-2.48-1.02-1.55-1.78-3.35-2.26-5.15-.64-2.39,1.13-3.99,2.48-5.62,1.06-1.28,2.5-1.07,3.83-.51,1.97,.84,3.94,1.7,5.8,2.74,.83,.47,1.39,1.42,2.07,2.15-.22,.09-.43,.19-.65,.28Z"/><path d="M236.38,20.98c.13-.85,.19-1.68,.4-2.46,1.12-4.25,3.61-5.23,7.24-2.78,1.24,.84,2.58,1.76,3.36,2.97,.76,1.19,1.1,2.77,1.22,4.22,.14,1.79-.22,3.61-.21,5.41,0,1.54-.53,2.3-2.13,1.96-1.85-.39-3.77-.62-5.51-1.28-2.24-.85-3.14-3-3.87-5.09-.33-.93-.34-1.98-.5-2.95Z"/><path d="M326.14,107.05c.61,.86,1.19,1.75,1.83,2.58,1.95,2.52,4.39,3.95,7.71,4.13,2.23,.12,4.48,.69,6.62,1.38,2.24,.73,2.64,2.43,.94,4.04-1.54,1.45-3.31,2.76-5.19,3.72-.86,.44-2.43,.24-3.31-.28-2.31-1.39-4.51-3.01-6.6-4.73-2.82-2.33-3.52-5.56-3.29-9.04,.03-.44,.36-.87,.55-1.3,.24-.17,.49-.34,.73-.5Z"/><path d="M237.48,42.82c5.13,1.41,9.94,2.75,13.36,6.78,.99,1.16,1.41,2.58,.42,4.01-.96,1.39-2.38,2.04-3.96,1.5-2.02-.69-4.26-1.2-4.97-3.81-.13-.48-1.31-.92-2.02-.94-1.57-.06-3.14,.22-4.72,.23-1.49,.02-3.08-.15-3.44-1.96-.34-1.7,.12-3.32,1.74-4.25,1.18-.67,2.49-1.1,3.59-1.56Z"/><path d="M290.31,41.79c.27,2.08-.66,3.33-2.53,4.16-1.26,.56-2.42,1.34-3.59,2.09-1.61,1.03-3.06,1-4.41-.43-.43-.46-.91-.87-1.39-1.29-2.83-2.52-2.62-6.08,.61-8.15,2.65-1.69,5.67-2.16,8.72-1.74,.8,.11,1.73,1.17,2.11,2.02,.44,.99,.34,2.22,.48,3.34Z"/><path d="M250.07,59.77c.57,0,1.15-.08,1.7,.02,1.95,.35,3.7,1.12,4.39,3.13,.65,1.88-.5,3.26-1.74,4.5-.53,.54-1.12,1.01-1.71,1.5-5.43,4.47-3.97,3.18-9.45,.52-1.63-.79-1.77-2.15-.41-3.35,.98-.86,1.08-1.72,.82-2.83-.37-1.6,.36-2.54,1.9-2.92,.43-.11,.86-.21,1.29-.27,1.06-.14,2.13-.26,3.19-.38,0,.03,0,.07,0,.1Z"/><path d="M304.51,53.87c.03,.69,.08,1.39,.1,2.08,.11,4.34-2.05,6.75-6.35,7.15-1.19,.11-1.7-.44-1.48-1.55,.66-3.35-.21-6.49-1.18-9.62-.11-.36-.21-.73-.28-1.1-.59-3.17,.4-4.14,3.53-3.44,.86,.19,1.71,.44,2.58,.57,2.8,.41,2.9,.48,3.01,3.26,.03,.88,0,1.76,0,2.65,.02,0,.04,0,.06,0Z"/><path d="M336.92,81.09c-2.96-.78-5.49-1.91-7.2-4.23-.49-.67-.67-2.16-.25-2.79,1.57-2.39,3.29-4.74,5.26-6.81,1.32-1.4,2.02-.94,2.71,.97,.96,2.65,1.96,5.3,3.13,7.86,1.07,2.34,1.15,2.55-1.04,3.87-.84,.51-1.81,.79-2.61,1.12Z"/><path d="M237.05,7.62c-2.29,.05-3.81-.97-4.73-2.93-1.55-3.29-.53-7.08,2.5-9.15,1.81-1.24,4.75-.45,5.62,1.54,.65,1.5,1.29,3.01,1.9,4.53,.56,1.39,.36,2.62-.96,3.48-1.42,.94-2.32,2.81-4.33,2.54Z"/><path d="M269.55,59.09c-.37,2.41-1.64,3.88-3.3,4.55-.97,.39-2.86,0-3.55-.74-2.18-2.39-4.13-5.02-5.87-7.76-.5-.79-.4-2.62,.2-3.25,.58-.62,2.4-.77,3.23-.32,2.74,1.49,5.34,3.27,7.86,5.12,.77,.57,1.07,1.76,1.44,2.4Z"/><path d="M339.81,125.64c1.92,.52,3.88,.95,5.75,1.6,.49,.17,.74,1.02,1.1,1.56-.55,.35-1.1,.99-1.65,.99-1.97-.01-3.15,1.06-4.16,2.54-.43,.62-.86,1.24-1.33,1.84-2.09,2.63-4.52,3.1-7.31,1.28-.53-.35-.98-1.2-1.03-1.85-.25-3.99,1.98-6.76,5.9-7.45,.87-.15,1.76-.15,2.64-.22,.03-.1,.06-.2,.09-.3Z"/><path d="M288.03,27.35c.29-.78,.61-2.39,1.44-3.69,1.31-2.05,3.25-2.62,5.56-1.46,.49,.25,1.09,.32,1.64,.42,3.13,.55,3.86,1.63,3.11,4.68-.21,.85-.46,1.73-.91,2.46-.26,.41-.96,.57-1.5,.75-.88,.3-2.08,.24-2.61,.82-1.35,1.46-2.76,1.89-4.55,1.14-1.94-.82-1.93-2.6-2.17-5.12Z"/><path d="M323.23,56.76c3.66,.15,5.23,2.59,3.81,6.04-.99,2.4-1.3,4.49,.35,6.93,.77,1.13,.15,3.23-.02,4.88-.02,.16-1.67,.54-1.99,.22-1.7-1.67-3.27-3.49-4.75-5.36-.22-.27,.06-1.22,.4-1.62,1.33-1.58,1.46-3.25,.79-5.13-.4-1.12-.67-2.31-.85-3.48-.34-2.17,.07-2.58,2.26-2.48Z"/><path d="M187.98,80.26c1.22-1.89,2.12-2.11,4.51-.9,1.77-2.19,2.65-2.32,4.85-.74,1.59-1.96,3.05-2.42,4.35-1.34,1.09,.9,1.25,2.48,.36,3.55-1.01,1.23-2.44,1.18-4.13-.13-1.94,2.32-2.56,2.46-4.84,1.12-1.99,2.51-3.35,2.53-5.36,.02-.8,1.43-1.87,2.14-3.59,1.65-.55-.16-1.22,.13-1.83,.15-1.42,.05-2.63-1.03-2.61-2.42,.02-1.45,.8-2.41,2.27-2.55,1.17-.11,2.4-.21,3.52,.05,.87,.2,1.61,.97,2.5,1.54Z"/><path d="M263.96,39.53c-1.16,.54-1.85,.8-2.47,1.17-1.42,.85-2.94,1.6-4.19,2.66-1.79,1.53-5.83,1.72-7.36,0-.41-.46-.59-1.27-.58-1.91,.03-1.25,.16-2.54,.49-3.74,.18-.64,.78-1.47,1.37-1.64,2.62-.78,5.3-1.36,7.86,.24,1.48,.93,2.92,1.92,4.88,3.21Z"/><path d="M240.59,94.63c-.67,0-1.24,.03-1.81,0-1.53-.11-2.44-1.47-1.48-2.6,1.94-2.29,4.13-4.39,6.38-6.39,.47-.42,1.74-.27,2.49,.01,1.52,.59,2.97,1.38,4.38,2.22,1.34,.8,1.02,1.89,.2,2.87-2.08,2.47-4.87,3.49-7.99,3.77-.75,.07-1.51,.09-2.16,.12Z"/><path d="M164.89,118.69c.66,1.81,1.24,3.66,2.01,5.42,.48,1.1,1.03,2.42,1.96,3.04,4.6,3.09,9.63,4.84,15.2,3.14,3.79-1.16,7.45-2.71,11.19-4.03,2.6-.92,5.23-1.74,7.92-2.63,.02,.28,.06,.43,.02,.45-6.65,3.73-13.21,7.6-21.02,8.61-4.95,.64-9.4-.64-13.61-2.9-1.14-.61-2.15-2.04-2.55-3.31-.78-2.47-1.08-5.1-1.58-7.66,.15-.05,.31-.09,.46-.14Z"/><path d="M215.18,16c.78,.43,1.45,.68,1.97,1.1,1.5,1.23,2.95,2.52,4.4,3.82,1.97,1.78,1.86,3.09-.34,4.57-.47,.32-.92,.67-1.35,1.03-1.19,1-2,1-3.08-.41-.8-1.05-2.23-1.73-3.51-2.3-2.86-1.28-3.09-1.92-1.31-4.42,.55-.77,.95-1.65,1.57-2.34,.41-.47,1.09-.71,1.65-1.05Z"/><path d="M188.61-3.83c.27-2.56,.39-4.31,.64-6.05,.24-1.64,3.37-4.74,4.94-5.02,1.31-.23,2.9,1.16,2.85,2.58-.1,2.52-.73,4.86-2.78,6.56-1.46,1.21-2.25,2.64-2.05,4.59,.05,.48-.32,1-.5,1.5-.49-.29-1.18-.46-1.43-.89-.75-1.25-1.34-2.6-1.67-3.28Z"/><path d="M329.05,48.86c-.09,.84-.11,1.28-.19,1.72-.69,4.24-.77,4.28-4.88,2.95-.41-.13-.86-.19-1.29-.17-1.12,.04-1.53-.52-1.7-1.57-.36-2.27-.78-4.54-1.28-6.79-.24-1.07,.13-1.56,1.11-1.76,1.94-.39,6.77,1.73,7.65,3.47,.38,.76,.46,1.67,.59,2.15Z"/><path d="M225.39,19.15c-.79-.6-1.99-1.05-2.28-1.83-.92-2.51-1.66-5.12-2.14-7.75-.28-1.57,1.03-2.48,2.58-1.93,1.59,.57,3.2,1.25,4.54,2.24,.66,.49,1.19,1.93,.97,2.71-.58,2.07,.04,4.68-2.29,6.07-.3,.18-.73,.11-1.11,.16-.09,.11-.18,.21-.27,.32Z"/><path d="M145.03,82.38c.04,1.07,.05,2.14,.13,3.2,.24,3.5,1.3,6.55,4.05,9.03,2.74,2.46,4.7,5.55,5.91,9.09,.31,.91,1.02,1.68,1.72,2.77-1.97-.35-3.51-1.15-4.63-2.71-2.12-2.95-4.18-5.95-6.37-8.84-1.99-2.63-3.15-5.51-2.57-8.79,.23-1.29,1.2-2.46,1.83-3.68,0,0-.06-.06-.06-.06Z"/><path d="M160.35,14.34c-1.04,4.06-1.76,8.23-3.24,12.13-1.07,2.83-3.23,5.22-4.74,7.9-4.18,7.41-8.35,14.83-12.34,22.34-1.17,2.2-1.72,4.73-2.56,7.1-.12,.34-.26,.67-.69,.92,.18-.89,.3-1.8,.55-2.67,1.63-5.52,3.73-10.77,6.94-15.65,3.31-5.04,5.98-10.5,8.93-15.78,1.23-2.2,2.72-4.3,3.63-6.63,1.02-2.61,1.5-5.43,2.23-8.16,.15-.57,.35-1.13,.53-1.7l.75,.2Z"/><path d="M273.62,10.31c.05-.21,.11-.85,.37-1.4,.6-1.3,1.63-1.52,2.48-.4,1.56,2.05,3.05,4.16,4.36,6.37,.42,.71,.44,1.87,.21,2.71-.65,2.37-2.04,2.65-3.78,.93-2.48-2.46-3.65-4.97-3.65-8.2Z"/><path d="M230.12,72.81c-2.05,0-3.04-.93-2.7-2.91,.32-1.84,.83-3.69,1.52-5.43,.64-1.64,3.15-2.11,4.5-.95,.31,.26,.46,.85,.47,1.29,.01,1.44-.1,2.89-.12,4.33-.03,2.97-.7,3.66-3.67,3.67Z"/><path d="M300.4,19.69c-.19,.37-.4,1.26-.76,1.33-.53,.1-1.47-.22-1.72-.66-1.66-2.85-3.22-5.75-4.73-8.68-.47-.91,.02-1.49,.97-1.84,.69-.25,1.33-.69,1.91-1.14,1.07-.84,1.87-.48,2.14,.64,.79,3.35,1.44,6.73,2.2,10.34Z"/><path d="M251.01,80.98c-.23-.01-.8,.14-1.08-.09-1.09-.86-2.4-1.67-3-2.83-.29-.56,.73-1.88,1.28-2.78,.24-.4,.75-.67,1.18-.92,1.59-.93,4.2-.85,5.37,.18,1.39,1.22,1.02,2.74,.59,4.21-.61,2.08-2.38,2.16-4.33,2.23Z"/><path d="M215.4,46.48c.66,0,1.16-.05,1.64,0,2.37,.27,4.75,.51,7.11,.91,.5,.08,1.24,.73,1.3,1.19,.28,2.09-3.23,5.41-5.29,5.02-.76-.14-1.62-.52-2.13-1.07-1.53-1.65-2.28-3.69-2.62-6.06Z"/><path d="M288.57,17.46c-.36-.06-.78,0-.95-.19-1.48-1.59-3.08-3.11-4.31-4.88-.78-1.12,.14-3.02,1.49-3.64,1.45-.67,2.73-.33,3.59,1.06,1.06,1.71,2.06,3.46,3.09,5.18,.59,.98,.46,1.66-.74,1.95-.73,.17-1.46,.35-2.17,.52Z"/><path d="M194.08,1.27c-.75-1.67-.09-3.12,.95-4.43,.86-1.08,1.98-1.96,2.79-3.07,.94-1.28,1.67-2.72,2.47-4.1,.25-.43,.32-1.07,.68-1.31,.72-.5,1.59-.8,2.4-1.19,.34,.75,.93,1.49,.97,2.26,.15,3.03-1.18,4.89-4.14,5.64-2.05,.53-2.86,2.08-3.74,3.69-.52,.95-1.14,1.84-1.72,2.76-.22-.08-.43-.17-.65-.25Z"/><path d="M300.87,80.32c-1.65,.43-1.87-.73-2.43-2.29-.9-2.48-1.17-3.51,.48-5.07,.48-.46,1.55-.79,2.11-.58,2.17,.84,3.6,2.5,4.04,4.83,.42,2.22-.7,3.07-4.2,3.11Z"/><path d="M258.89,25.12c-1.27,1.37-2.4,2.83-3.8,3.95-.4,.32-2.17-.15-2.29-.56-.54-1.74-1.24-3.74-.8-5.36,.34-1.26,2.22-2.15,3.52-3.07,.24-.17,1.23,.19,1.42,.54,.7,1.31,1.21,2.72,1.96,4.49Z"/><path d="M313.65,67.83c-.16,.27-.38,1.05-.87,1.3-.39,.2-1.28-.08-1.67-.44-1.19-1.12-2.35-2.3-3.3-3.62-.35-.48-.29-1.53-.01-2.12,.66-1.42,1.52-2.75,2.39-4.06,.25-.37,.94-.85,1.16-.75,.43,.22,.86,.77,.94,1.25,.49,2.66,.87,5.34,1.36,8.43Z"/><path d="M208.88,23.46c1.33,1,2.31,1.61,3.12,2.38,.89,.85,1.55,1.92,2.43,2.78,1.37,1.35,1.56,2.42,.5,3.77-1.18,1.51-2.36,.72-3.42-.1-2.2-1.7-3.16-4.17-3.79-6.75-.11-.46,.59-1.12,1.15-2.1Z"/><path d="M163.41,9.19c.2-.55,.34-1.12,.6-1.63,1.29-2.5,2.54-5.02,3.97-7.44,.48-.81,1.46-1.32,2.21-1.97,.59,.95,1.49,1.84,1.68,2.86,.17,.86-.19,2.2-.81,2.76-2.28,2.06-4.78,3.89-7.19,5.8-.16-.13-.31-.25-.47-.38Z"/><path d="M209.76,53.18c-2.43-1.37-5.47-1.85-6.17-5.08-.17-.8-.06-1.66-.08-2.49,.81,.15,1.68,.17,2.41,.49,1.02,.45,1.93,1.15,2.92,1.7,2.79,1.55,2.99,2.58,.92,5.38Z"/><path d="M300.94,12.79c.51-1.46,.86-2.94,1.56-4.24,.29-.55,1.31-.71,2.01-1.05,.33,.69,.73,1.37,.97,2.09,.11,.31,.01,.8-.18,1.09-1.36,2.05-1.23,4.26-.92,6.56,.08,.61-.39,1.3-.61,1.95-.31-.57-.66-1.12-.92-1.72-.34-.78-.6-1.6-.92-2.39-.3-.73-.63-1.45-.99-2.29Z"/><path d="M237.78,58.79c-.06,1.57-1.56,2.66-2.59,1.95-1.69-1.15-3.21-2.58-4.62-4.06-.37-.39-.1-1.39-.13-2.11,.69,.02,1.49-.18,2.05,.11,1.45,.75,2.83,1.65,4.14,2.62,.56,.41,.89,1.14,1.16,1.5Z"/><path d="M211.18,43.99c-1.05-.31-1.9-.53-2.72-.82-1.27-.45-2.49-1.16-3.8-1.4-1.75-.32-1.7-1.39-1.48-2.64,.25-1.41,.98-2.11,2.52-1.68,1.89,.53,4.73,3.73,5.48,6.54Z"/><path d="M247.16,8.14c.48-1.44,.7-2.64,1.29-3.63,.28-.47,1.25-.72,1.9-.71,.28,0,.69,.89,.8,1.43,.29,1.46,.55,2.95,.62,4.43,.03,.72-.39,1.46-.61,2.18-.71-.23-1.63-.26-2.07-.74-.8-.86-1.32-1.99-1.92-2.96Z"/><path d="M198.01,.23c-.04-4.05,4.87-6.43,10.01-4.37-1.61,1.05-3.07,2.3-4.75,3.03-1.66,.72-3.54,.93-5.26,1.34Z"/><path d="M224.84,42.25c-.34-.2-1.52-.52-1.86-1.24-.28-.61,.4-1.68,.69-2.53,.08-.22,.28-.42,.46-.59,1.19-1.07,2.6-1.76,4.1-.97,.48,.25,.77,1.48,.62,2.16-.46,2.16-1.69,3.2-4.02,3.17Z"/><path d="M302.04,37.07c-1.71-1.24-3.18-2.08-4.34-3.23-.68-.67-.25-1.68,.84-1.72,1.94-.07,3.89-.04,5.81,.17,.4,.04,1.1,1.37,.97,1.53-.91,1.1-2.01,2.04-3.28,3.26Z"/><path d="M197.76,73.19c-.91-.28-1.54-.33-1.96-.65-.71-.54-1.29-1.25-1.93-1.89,.67-.59,1.26-1.31,2.02-1.72,.87-.47,1.89-.87,2.85-.89,.72-.02,1.72,.43,2.1,1,.3,.46,.11,1.64-.3,2.09-.8,.87-1.92,1.45-2.78,2.06Z"/><path d="M195.27,40.8c3.55,1.05,5.83,5.08,4.54,7.85-3.72-.56-5.26-3.16-4.54-7.85Z"/><path d="M205.53,59.8c-1.98-1.35-3.98-2.65-5.89-4.08-.24-.18-.13-1.1,.1-1.51,.12-.22,.93-.22,1.33-.07,1.94,.72,3.88,1.47,5.76,2.33,.61,.28,1.07,.89,1.6,1.35-.57,.44-1.12,.9-1.72,1.3-.25,.17-.59,.2-.89,.29-.1,.13-.2,.27-.3,.4Z"/><path d="M213.34,71.82c-1,1.73-1.65,3.68-4.3,3.87-.91,.07-1.68,1.4-2.63,1.96-.7,.42-1.72,1.36-2.33-.1-.52-1.25-.41-2.41,1.28-2.69,1.84-.31,3.42-.98,4.76-2.41,.67-.71,1.91-.88,2.89-1.29,.11,.22,.22,.45,.33,.67Z"/><path d="M229.62-.43c0,.06-.01,.13-.01,.19q-.23,4.06-4.1,2.78c-1.58-.52-2.14-1.61-1.07-2.79,.95-1.04,2.34-1.93,3.69-2.3,1.54-.42,1.54,1,1.49,2.12Z"/><path d="M210.13,54.86c1.94-1.28,3.97-.71,5.68,.2,.88,.47,1.34,1.94,1.7,3.06,.16,.5-.25,1.65-.61,1.75-.59,.16-1.5-.12-2-.54-1.59-1.35-3.06-2.85-4.77-4.47Z"/><path d="M187.79,43.99c-2.94-.39-5.71-5.04-4.67-7.21,.22-.45,1.24-.85,1.77-.73,.56,.12,1.24,.81,1.4,1.39,.59,2.07,.98,4.2,1.5,6.55Z"/><path d="M220.01,61.42c1.75,1.3,3,3.07,3.66,5.14,.42,1.31-.88,1.63-1.87,1.82-1.24,.23-2.64,.23-2.76-1.39-.13-1.8,.16-3.63,.26-5.45,.23-.04,.47-.07,.7-.11Z"/><path d="M184.72,71.65c1.66-2.21,3.31-2.94,5.39-2.21,.62,.22,1.39,.88,1.48,1.44,.09,.54-.46,1.41-.98,1.79-1.88,1.37-4.29,.92-5.89-1.02Z"/><path d="M284.68,28.42c-.5,.71-.94,1.96-1.51,2.03-1.71,.21-3.89-1.68-3.94-3.02-.04-1.11,1.4-2.22,2.95-2.25,1.65-.03,2.11,1.04,2.17,2.45,0,.19,0,.37,0,.56,.11,.08,.22,.15,.33,.23Z"/><path d="M189.74,61.14c1.55-.77,6.75,1,8.33,2.84-2.35,2.19-6.17,.88-8.33-2.84Z"/><path d="M212.68,14.25c-1.62,6.1-6.8,8.18-11.7,10.57,3.14-4.37,9.18-5.46,11.7-10.57Z"/><path d="M189.87,85.6c1.33-.01,2.55,1.2,2.56,2.53,.02,1.33-1.18,2.55-2.52,2.57-1.33,.02-2.55-1.18-2.56-2.53-.02-1.33,1.19-2.56,2.52-2.57Z"/><path d="M196.85,88.98c-1.41-.03-2.5-1.16-2.46-2.55,.04-1.39,1.18-2.47,2.58-2.45,1.4,.03,2.47,1.16,2.44,2.57-.04,1.46-1.1,2.46-2.56,2.43Z"/><path d="M176.41,79.02c1.42,.03,2.5,1.15,2.47,2.55-.03,1.4-1.17,2.49-2.57,2.46-1.4-.02-2.47-1.14-2.45-2.56,.01-1.41,1.13-2.48,2.55-2.45Z"/><path d="M185.94,89.76c.03,1.34-1.14,2.55-2.5,2.58-1.36,.04-2.57-1.11-2.62-2.46-.04-1.33,1.13-2.53,2.5-2.57,1.37-.04,2.59,1.1,2.61,2.45Z"/><path d="M239.87,33.56c.16,.14,.95,.51,1.01,.99,.18,1.35-2.07,3.84-3.32,3.5-.96-.27-2-1.28-2.43-2.22-.47-1.03,1.76-2.21,4.73-2.27Z"/><path d="M194.64,46.9c-2.42-.73-3.99-1.82-4.78-3.5-.32-.69,.4-1.96,.84-2.87,.19-.4,.9-.79,1.33-.75,.34,.03,.73,.7,.88,1.16,.57,1.78,1.05,3.58,1.73,5.96Z"/><path d="M205.29,29.43c-.23,.37-.63,1.01-1.04,1.66-.55-.45-1.18-.82-1.61-1.36-.47-.57-.84-1.26-1.08-1.96-.17-.52-.28-1.45-.01-1.65,.65-.47,1.52-.78,2.33-.82,.33-.02,.85,.79,1.02,1.31,.24,.76,.24,1.6,.4,2.82Z"/><path d="M232.59,32.51c.29,.24,1.65,1.11,1.55,1.33-.55,1.22-1.45,2.28-2.23,3.4-.79-.79-1.93-1.46-2.3-2.41-.45-1.17,.84-2.26,2.98-2.32Z"/><path d="M229.43,22.96c1.68-.07,2.19,.96,2.32,2.24,.13,1.31-1.29,2.94-2.51,2.76-1.82-.26-1.2-1.86-1.38-2.98-.2-1.25,.19-2.12,1.57-2.03Z"/><path d="M222.41,6.63c-1.34-.35-2.72,0-2.66-1.93,.04-1.33,1.18-2.34,2.52-2.21,1.31,.13,2.92,1.82,2.41,2.83-.33,.65-1.49,.89-2.27,1.31Z"/><path d="M182.76,113.81c-1.98,1.15-3.39,1.29-4.63,.38-1.2-.88-1.77-2.19-1.22-4.28,1.95,1.3,3.68,2.46,5.86,3.9Z"/><path d="M196.5,55.54c-2.96,1.6-6.56,.05-6.96-2.95,2.7,.14,4.81,1.37,6.96,2.95Z"/><path d="M184.89,112.74c1.94,.46,3.1,1.56,3.46,3.37,.27,1.34-.42,1.9-1.71,1.51-2.18-.65-2.85-2.37-1.75-4.89Z"/><path d="M202.5,62.03c-2.65,.99-5.4-.82-5.43-3.58,2.29-.47,4.46,.96,5.43,3.58Z"/><path d="M168.48,113.9c.94,1.47,1.8,2.56,2.35,3.79,.21,.47-.19,1.73-.48,1.79-.74,.14-2.02,.07-2.27-.38-.85-1.5-1.06-3.18,.4-5.2Z"/><path d="M177.02,57.25c-1.7-.31-3.17-.32-3.08-1.94,.04-.67,1.3-1.92,1.52-1.83,1.19,.53,2.22,1.39,3.31,2.14-.65,.61-1.31,1.22-1.74,1.62Z"/><path d="M182.46,70.94c-1,2.84-1.98,3.51-3.82,2.89-1.23-.41-1.11-1.31-.81-2.12,.42-1.15,2.98-1.55,4.63-.77Z"/><path d="M173.21,76.24c-.58-.07-1.16,0-1.55-.22-.43-.25-.91-.75-.97-1.2-.07-.47,.19-1.15,.54-1.49,.8-.76,4.16,.2,4.49,1.3,.11,.35-.23,1.11-.56,1.27-.59,.28-1.33,.25-1.94,.34Z"/><path d="M187.49,124.35c-1.46-.39-2.75-.59-3.9-1.11-.48-.21-.82-1.07-.88-1.68-.02-.23,.87-.73,1.4-.81,2.15-.34,3.22,.69,3.38,3.6Z"/><path d="M196.02,32.93c-.29,1.67-.33,3.11-2.02,2.85-.62-.1-1.66-1.41-1.57-1.56,.71-1.09,1.66-2.02,2.53-3,.42,.67,.83,1.34,1.05,1.7Z"/><path d="M179.34,90.99c-.74,.5-1.54,1.45-2.21,1.37-.71-.09-1.31-1.15-1.95-1.79,.65-.64,1.25-1.72,1.97-1.8,.67-.08,1.46,.9,2.2,1.41,0,.27,0,.54,0,.82Z"/><path d="M171.18,79.7c.5,.74,1.46,1.55,1.37,2.21-.1,.71-1.19,1.28-1.84,1.92-.63-.65-1.69-1.26-1.76-1.96-.07-.67,.9-1.45,1.41-2.18,.27,0,.55,0,.82,0Z"/><path d="M187.84,46.57c2.38,.88,4.03,3.2,3.65,5.15-2.76-.7-4.23-2.78-3.65-5.15Z"/><path d="M191.49,113.27c1.61,.36,4.06,2.57,4.11,3.62,.02,.46-.48,1.37-.62,1.34-.66-.11-1.47-.31-1.86-.79-.43-.53-.44-1.4-.69-2.1-.22-.62-.54-1.2-.94-2.08Z"/><path d="M182.8,46.58c-2.3-.29-3.86-2.81-3.08-4.32,.56-1.08,1.43-.62,1.73,.04,.59,1.29,.88,2.71,1.35,4.27Z"/><path d="M175.57,124.3c-1.72-.06-2.99-.23-2.96-1.86,.01-.48,.74-.94,1.14-1.41,.89,.78,1.78,1.57,2.67,2.35-.35,.38-.71,.76-.85,.92Z"/><path d="M178.96,10.07c1,.27,2.03,.48,3.01,.82,.48,.17,1.15,.48,1.26,.87,.1,.36-.33,1.09-.72,1.3-.53,.28-1.55,.53-1.83,.25-.82-.83-1.39-1.92-2.06-2.91,.11-.11,.22-.22,.33-.32Z"/><path d="M181.67,119.01c-.8,1.04-1.26,1.63-1.71,2.21-.77-.83-1.53-1.66-2.3-2.49,.55-.41,1.15-1.2,1.64-1.14,.73,.09,1.38,.78,2.37,1.41Z"/><path d="M180.25,48.58c3.04-.1,4.43,.99,4.09,3.09-1.92,.03-3.53-1.15-4.09-3.09Z"/><path d="M210.7,59.96c1.29,.51,2.41,.89,3.45,1.42,.35,.18,.49,.77,.73,1.17-.42,.21-.82,.57-1.26,.62-2,.24-3.01-.75-2.92-3.21Z"/><path d="M220.56,41.71c-1.26,1.16-2.46,1.9-4.01,1.17-.37-.18-.75-.7-.79-1.1-.03-.27,.47-.77,.82-.88,1.35-.4,2.7-.5,3.97,.82Z"/><path d="M167.73,60.06c.13-.66,.06-1.31,.33-1.52,1.18-.94,2.44-1.78,3.72-2.59,.16-.1,.87,.28,.86,.35-.11,.56-.43,1.6-.5,1.58-1.69-.34-2.18,1.29-3.28,1.88-.25,.13-.56,.15-1.13,.3Z"/><path d="M182.09,8.86c-1.42-1.2-2.42-2.04-3.73-3.14,1.27-.63,2.12-1.06,3.41-1.7,.11,1.65,.19,2.91,.32,4.84Z"/><path d="M177.29,98.3c-.69-1.13-1.45-1.82-1.35-2.35,.1-.54,1-1.2,1.62-1.29,.37-.05,1.24,.93,1.23,1.42-.02,.59-.74,1.16-1.5,2.21Z"/><path d="M171.18,87.83c.72,1.11,1.49,1.78,1.4,2.3-.1,.56-.97,1.24-1.59,1.35-.36,.06-1.26-.9-1.26-1.4,0-.59,.71-1.18,1.45-2.25Z"/><path d="M201.78,38.69c-.71,.47-1.09,.72-1.47,.97-.49-.83-1.08-1.63-1.39-2.52-.1-.3,.54-.85,.84-1.28,.61,.86,1.22,1.71,2.02,2.83Z"/><path d="M172.56,12.69c.62-.6,1.18-1.29,1.89-1.75,.17-.11,1.17,.52,1.2,.86,.05,.59-.23,1.63-.61,1.75-.67,.21-1.51-.12-2.29-.23-.07-.21-.13-.42-.2-.63Z"/><path d="M171.73,93.91c.64,.89,1.32,1.43,1.26,1.86-.06,.5-.78,.91-1.22,1.36-.43-.44-1.15-.84-1.22-1.33-.06-.45,.58-.99,1.17-1.9Z"/><path d="M163.75,86.56c.89-.66,1.41-1.34,1.85-1.29,.49,.05,1.25,.75,1.27,1.2,.02,.43-.71,1.18-1.19,1.26-.44,.07-1-.57-1.92-1.16Z"/><path d="M168.43,91.98c-.89,.64-1.44,1.32-1.88,1.27-.48-.06-.88-.82-1.32-1.27,.44-.42,.86-1.14,1.34-1.19,.46-.05,.99,.6,1.86,1.19Z"/><path d="M168.3,82.53c-.88,.63-1.41,1.31-1.88,1.26-.47-.05-1.18-.78-1.22-1.25-.03-.39,.75-1.14,1.22-1.19,.47-.04,1,.59,1.88,1.18Z"/><path d="M218.64,11.97c-.36-.82-.72-1.65-1.07-2.47,.62-.17,1.24-.33,1.87-.5,.06,.91,.12,1.82,.17,2.73-.32,.08-.64,.16-.96,.24Z"/><path d="M189.45,5.14c.09-1.23,.18-2.45,.3-4.04,1.57,1.68,1.59,2.7,.4,4.08-.23-.01-.47-.03-.7-.04Z"/><path d="M199.68,27.38c-1.01,.86-1.81,1.54-2.88,2.46,.49-3.09,.64-3.22,2.88-2.46Z"/><path d="M196.97,35.12c.28-.67,.52-1.37,.89-1.98,.05-.08,.79,.26,1.21,.4-.38,.68-.75,1.35-1.13,2.03-.32-.15-.64-.3-.97-.45Z"/><path d="M213.56,13.63c.58-.51,1.17-1.01,1.75-1.52l.65,.38c-.13,.64-.12,1.39-.47,1.88-.16,.23-1.02-.03-1.56-.07-.13-.23-.25-.45-.38-.68Z"/></g></g></g></g></svg>